<svg width="20" height="20" viewBox="0 0 20 20" fill="none" xmlns="http://www.w3.org/2000/svg">
<path d="M8.49999 14.4585L4.7086 10.6664L4.70859 10.6664C4.55381 10.5116 4.34388 10.4247 4.12498 10.4247C3.90609 10.4247 3.69615 10.5116 3.54137 10.6664C3.38659 10.8212 3.29963 11.0311 3.29963 11.25C3.29963 11.4689 3.38659 11.6788 3.54137 11.8336L7.91629 16.2085C7.99291 16.2852 8.0839 16.3461 8.18406 16.3876C8.28421 16.4291 8.39156 16.4505 8.49998 16.4505C8.6084 16.4505 8.71575 16.4291 8.81591 16.3876C8.91606 16.3461 9.00705 16.2852 9.08367 16.2085L19.0836 6.20861C19.2384 6.05383 19.3253 5.8439 19.3253 5.625C19.3253 5.40611 19.2384 5.19617 19.0836 5.04139C18.9288 4.88661 18.7189 4.79965 18.5 4.79965C18.2811 4.79965 18.0712 4.88661 17.9164 5.04139L17.9164 5.0414L8.49999 14.4585Z" fill="#1B873F" stroke="#1B873F" stroke-width="0.4"/>
</svg>
